<?xml version="1.0" standalone="no"?>
<!DOCTYPE svg PUBLIC "-//W3C//DTD SVG 20010904//EN"
 "http://www.w3.org/TR/2001/REC-SVG-20010904/DTD/svg10.dtd">
<svg version="1.0" xmlns="http://www.w3.org/2000/svg"
 width="1176.000000pt" height="1280.000000pt" viewBox="0 0 1176.000000 1280.000000"
 preserveAspectRatio="xMidYMid meet">

<g transform="translate(0.000000,1280.000000) scale(0.100000,-0.100000)"
fill="#000000" stroke="none">
<path d="M3810 7685 c0 -729 0 -1328 0 -1332 0 -5 595 -11 1322 -14 728 -3
1339 -9 1358 -13 19 -4 91 -16 159 -28 214 -35 417 -104 573 -194 83 -48 210
-152 202 -165 -3 -5 -1 -8 5 -7 5 2 28 -19 51 -47 22 -27 45 -56 50 -63 29
-34 103 -209 126 -297 22 -84 27 -128 31 -282 6 -206 -8 -315 -57 -459 -39
-113 -109 -241 -125 -226 -5 4 -5 2 -1 -5 8 -15 -112 -145 -127 -136 -5 3 -7
1 -4 -4 14 -22 -220 -172 -244 -157 -8 4 -9 3 -5 -4 15 -25 -244 -111 -459
-151 -228 -43 -255 -44 -1577 -48 l-1278 -4 0 -99 c0 -54 -3 -106 -6 -115 -6
-15 96 -16 1302 -12 1287 3 1312 4 1464 25 523 75 869 232 1103 501 53 60 176
258 182 291 0 3 11 32 24 65 33 86 59 211 72 353 28 279 -37 610 -158 805 -13
21 -21 43 -17 49 4 7 3 8 -4 4 -6 -4 -16 4 -23 16 -31 59 -167 200 -264 273
-60 45 -179 112 -268 151 -26 11 -44 24 -40 29 5 4 2 5 -5 1 -7 -5 -34 1 -60
12 -26 11 -116 37 -199 58 l-153 38 103 36 c112 40 179 72 277 133 84 52 109
73 201 163 226 219 332 497 331 869 0 298 -70 535 -216 739 -19 27 -32 54 -29
59 3 6 2 7 -4 4 -13 -8 -136 117 -126 128 4 4 3 5 -4 2 -6 -4 -44 17 -84 47
-181 137 -458 245 -755 295 -224 39 -313 41 -1491 41 l-1153 0 0 -1325z m2510
1071 c286 -47 463 -107 645 -219 220 -135 360 -325 422 -573 24 -97 27 -128
28 -279 0 -183 -10 -260 -52 -385 -43 -128 -127 -271 -148 -252 -5 4 -5 1 -1
-5 9 -17 -121 -148 -200 -201 -139 -93 -315 -167 -505 -212 -229 -54 -215 -53
-1366 -57 l-1073 -4 0 1106 0 1106 1073 -4 c963 -3 1083 -5 1177 -21z"/>
<path d="M4058 3389 c-74 -11 -143 -46 -194 -101 -76 -79 -107 -175 -107 -328
0 -153 31 -249 107 -328 57 -61 124 -92 210 -101 125 -11 230 9 309 59 l47 30
0 154 c0 85 4 166 10 180 5 14 6 28 1 30 -4 3 -82 6 -172 7 l-164 1 0 -59 0
-58 82 -3 82 -3 3 -32 c2 -18 1 -60 0 -94 -4 -63 -4 -63 -40 -73 -46 -12 -165
-13 -158 -1 4 5 -3 7 -13 4 -35 -9 -115 64 -124 113 -2 11 -8 28 -13 39 -15
33 -11 259 5 279 7 9 11 16 7 16 -10 0 22 72 42 94 47 53 179 74 235 38 15
-10 24 -22 20 -27 -5 -4 -3 -5 4 -2 12 8 48 -32 58 -63 3 -10 13 -21 21 -24 8
-3 13 -2 10 3 -4 5 19 23 49 40 30 17 55 34 55 37 0 3 -14 26 -31 51 -67 98
-195 143 -341 122z"/>
<path d="M7864 3375 c-2 -5 -5 -129 -6 -275 l-3 -264 -137 221 c-76 121 -138
226 -138 232 0 6 -3 11 -7 11 -5 0 -19 18 -33 40 l-24 40 -92 0 -93 0 10 -32
c5 -18 9 -205 9 -415 0 -210 3 -384 8 -386 4 -3 38 -7 75 -8 l69 -4 -1 290
c-1 264 0 288 15 270 26 -34 184 -294 184 -304 0 -5 3 -11 8 -13 10 -4 58 -78
107 -166 l40 -72 78 0 77 0 0 419 0 419 -71 4 c-42 2 -73 -1 -75 -7z"/>
<path d="M5626 3363 c5 -10 11 -200 14 -423 4 -315 8 -405 18 -404 6 1 122 2
257 3 l245 1 0 55 0 55 -182 2 -183 3 -3 152 -3 152 163 3 163 3 0 53 0 54
-156 -1 c-125 -2 -158 1 -162 12 -3 8 -4 52 -3 98 l1 84 172 3 171 2 11 45 c6
24 11 49 11 54 0 8 -87 11 -271 11 -255 0 -271 -1 -263 -17z"/>
</g>
</svg>
